<svg width="333" height="333" viewBox="0 0 333 333" fill="none" xmlns="http://www.w3.org/2000/svg">
<path fill-rule="evenodd" clip-rule="evenodd" d="M0 129.557C0 107.284 26.9286 96.1298 42.6777 111.879L60.8584 130.06V173.614C60.8584 228.843 105.63 273.614 160.858 273.614H204.413L221.121 290.322C236.87 306.071 225.716 333 203.443 333H25C11.1929 333 8.01834e-05 321.807 0 308V129.557Z" fill="#E2D1F4"/>
<path fill-rule="evenodd" clip-rule="evenodd" d="M307.755 0C321.562 0.000105505 332.755 11.1929 332.755 25V203.198C332.755 225.471 305.826 236.625 290.077 220.876L269.796 200.595V164.981C269.796 109.753 225.024 64.9816 169.796 64.9814H134.183L111.879 42.6777C96.1299 26.9286 107.284 6.82142e-05 129.557 0H307.755Z" fill="#E2D1F4"/>
<path d="M135.15 136.621C151.92 119.851 179.111 119.851 195.881 136.622C212.652 153.393 212.652 180.583 195.881 197.353C179.111 214.124 151.92 214.124 135.15 197.354C118.379 180.583 118.379 153.392 135.15 136.621ZM152.399 153.87C145.211 161.058 145.21 172.711 152.398 179.899C159.585 187.086 171.239 187.085 178.426 179.898C185.613 172.71 185.613 161.058 178.426 153.87C171.239 146.683 159.586 146.683 152.399 153.87Z" fill="#C895FF"/>
</svg>
